<?xml version="1.0" encoding="UTF-8"?>
<svg id="Layer_2" data-name="Layer 2" xmlns="http://www.w3.org/2000/svg" width="500" height="500" viewBox="0 0 500 500">
  <defs>
    <style>
      .cls-1 {
        fill: #f6ead1;
      }

      .cls-2 {
        fill: #030001;
      }

      .cls-3 {
        fill: #602a17;
      }
    </style>
  </defs>
  <g id="Layer_1-2" data-name="Layer 1">
    <g>
      <path class="cls-2" d="M.09,499.91C.09,334.8,.11,169.7,0,4.59,0,.85,.84,0,4.59,0,168.2,.11,331.8,.11,495.41,0c3.75,0,4.6,.84,4.59,4.59-.11,163.61-.11,327.21,0,490.82,0,3.75-.84,4.59-4.59,4.59-165.1-.11-330.21-.09-495.31-.09Zm479.21-202.01c.62,.58,.31,1.22,.1,1.84-1.98,5.82-1.17,7.05,4.78,7.27,.83,.03,1.75-.12,2.48,.18,3.61,1.49,4.29-.27,4.24-3.43-.13-7.99-.14-15.99-.14-23.98,0-52.31,.01-104.62,.12-156.93,0-2.73-.65-3.87-3.38-4.7-3.02-.92-3.74-3.51-1.05-5.69,4.09-3.33,3.12-7.19,.97-10.6-1.34-2.12-1.39-3.6-.2-5.35,2.82-4.12,3.42-8.83,2.52-13.41-.82-4.17,.7-9.29-3.83-12.31-9.01-6.01-12.46-9.79-16.44-18.1-.26-.54-.89-1.21-1.41-1.28-3.48-.44-4.23-2.78-4.15-5.72,.04-1.64-.63-2.95-1.86-3.91-6.95-5.41-12.11-12.64-18.98-18.21-9.65-7.82-19.78-12.52-32.68-12.48-90.45,.27-180.91,.02-271.37,.15-21.29,.03-42.6-.88-63.89,.83-10.32,.83-13.56,4.66-11.44,14.43,.31,1.45,.26,2.97,.41,4.45,.36,3.65-.21,5.46-4.85,4.45-3.07-.67-8-2.82-9.69,.77-2.5,5.31-7.58,7.75-10.62,12.01-5.49,7.68-13.23,13.09-19.12,20.36-2.52,3.11-7.18,4.49-5.88,9.82,.08,.34-.35,1.12-.69,1.21-4.94,1.44-3.91,5.56-4.01,9.05-.14,5.33-.06,10.66-.06,15.99,0,98.29-.01,196.57,.04,294.86,0,4.8-.9,10.46,1.26,14.2,3.21,5.56,5.5,12.44,11.33,15.89,3.83,2.27,8.56,6.44,13.26,.67,.14-.17,.87,.14,1.26,.21,.43,1.41-.76,1.86-1.27,2.6-2.41,3.5-2.53,7.15-.82,10.9,1.41,3.11,3.66,4.18,7.24,3.55,1.35-.24,4.13,1.43,4.44,2.68,.97,3.94,4.07,5.7,6.69,8.01,2.02,1.78,2.81,7.16,7.2,2.44,.65-.69,.99,.94,1.54,1.39,4.15,3.32,7.5,9.1,14.02,4.44,.84,1.52,.31,2.46-.61,2.89-1.8,.85-3.95,2.38-2.18,3.91,3.07,2.66,3.95,8.99,10.42,6.82,1.26-.42,4.65-1.14,4.38,1.38-.7,6.46,3.99,6.22,7.59,6.36,12.46,.5,24.95,.78,37.4,.83,86.79,.34,173.59,.11,260.38,.28,6.34,.01,12.39-3.61,18.85-1.13,.62,.24,1.73-.15,2.33-.62,2.06-1.6,4.45-1.52,6.71-1.23,8.51,1.11,14.62-3.71,18.08-9.94,3.62-6.52,9.66-8.5,14.89-12.23,4.97-3.55,10.26-7.12,13.59-12.22,1.95-2.98,3.56-5.63,6.74-7.48,1.71-1,4.71-2.5,3.22-5.36-1.73-3.33,.31-3.76,2.38-5.51,2.62-2.22,7.74-1.74,8.11-5.83,.64-7.1,3.27-13.8,3.22-21.03-.14-23.15,.02-46.31,.05-69.47,0-7.33-.3-14.67,.07-21.98,.25-4.95-4.09-4.63-6.47-6.37-1.74-1.26-4.13-1.23-4.88,1.99-.35,1.48-1.72,.95-2.18,0-.93-1.89-3.32-1.44-4.42-2.99,4.88-1.44,2.24-7.7,6.29-9.63Z"/>
      <path class="cls-3" d="M479.31,297.9c-4.05,1.92-1.41,8.18-6.29,9.62,1.11,1.55,3.49,1.11,4.42,2.99,.47,.94,1.84,1.48,2.18,0,.75-3.22,3.15-3.25,4.88-1.99,2.38,1.73,6.72,1.42,6.47,6.37-.37,7.31-.06,14.65-.07,21.98-.03,23.16-.19,46.31-.05,69.47,.05,7.23-2.58,13.94-3.22,21.03-.37,4.09-5.49,3.61-8.11,5.83-2.08,1.75-4.12,2.18-2.38,5.51,1.49,2.86-1.51,4.36-3.22,5.36-3.18,1.86-4.79,4.5-6.74,7.48-3.33,5.1-8.62,8.66-13.59,12.22-5.23,3.73-11.26,5.71-14.89,12.23-3.46,6.23-9.57,11.05-18.08,9.94-2.26-.29-4.65-.37-6.71,1.23-.6,.46-1.71,.86-2.33,.62-6.46-2.49-12.51,1.14-18.85,1.13-86.79-.17-173.59,.06-260.38-.28-12.45-.05-24.94-.33-37.4-.83-3.6-.14-8.29,.09-7.59-6.36,.27-2.53-3.12-1.81-4.38-1.38-6.47,2.18-7.36-4.15-10.42-6.82-1.77-1.53,.38-3.06,2.18-3.91,.92-.43,1.45-1.37,.61-2.89-6.52,4.65-9.87-1.12-14.02-4.44-.55-.44-.89-2.08-1.54-1.39-4.39,4.72-5.17-.67-7.2-2.44-2.62-2.31-5.72-4.07-6.69-8.01-.31-1.25-3.09-2.92-4.44-2.68-3.58,.63-5.83-.45-7.24-3.55-1.71-3.75-1.59-7.41,.82-10.9,.52-.75,1.71-1.2,1.27-2.6-.39-.07-1.12-.38-1.26-.21-4.69,5.76-9.43,1.59-13.26-.67-5.83-3.45-8.12-10.33-11.33-15.89-2.16-3.74-1.26-9.4-1.26-14.2-.06-98.29-.04-196.57-.04-294.86,0-5.33-.08-10.66,.06-15.99,.09-3.49-.94-7.61,4.01-9.05,.33-.1,.77-.87,.69-1.21-1.3-5.34,3.36-6.71,5.88-9.82,5.89-7.27,13.63-12.68,19.12-20.36,3.05-4.26,8.12-6.71,10.62-12.01,1.7-3.6,6.62-1.44,9.69-.77,4.65,1.01,5.21-.8,4.85-4.45-.15-1.48-.09-3.01-.41-4.45-2.12-9.77,1.13-13.6,11.44-14.43,21.28-1.71,42.59-.8,63.89-.83,90.46-.14,180.91,.12,271.37-.15,12.9-.04,23.03,4.67,32.68,12.48,6.87,5.57,12.03,12.8,18.98,18.21,1.23,.96,1.9,2.27,1.86,3.91-.07,2.94,.67,5.28,4.15,5.72,.53,.07,1.15,.73,1.41,1.28,3.98,8.31,7.43,12.1,16.44,18.1,4.53,3.02,3.01,8.14,3.83,12.31,.9,4.58,.3,9.29-2.52,13.41-1.2,1.75-1.14,3.23,.2,5.35,2.15,3.41,3.12,7.28-.97,10.6-2.69,2.19-1.97,4.77,1.05,5.69,2.73,.83,3.39,1.97,3.38,4.7-.11,52.31-.11,104.62-.12,156.93,0,7.99,0,15.99,.14,23.98,.05,3.16-.63,4.92-4.24,3.43-.73-.3-1.65-.15-2.48-.18-5.95-.21-6.77-1.45-4.78-7.27,.21-.61,.52-1.26-.1-1.83Zm-132.75-56.54c-18.53-9.1-37.06-18.2-55.57-27.32-1.49-.73-2.87-1.34-4.67-1.33-29.97,.14-59.94,.19-89.91,.21-25.63,.02-51.26-.07-76.89-.02-2.96,0-5.44-.77-7.96-2.24-6.47-3.76-12.91-7.63-19.65-10.82-7.53-3.57-15.36-.71-19.25,6.32-3.81,6.87-2.23,15.01,4.74,19.27,7.53,4.59,15.05,9.23,22.88,13.39,5.7,3.03,14.72,4.12,14.06,14.22-.12,1.76-.53,3.48-.53,5.29,.03,20.13-.15,40.27-.15,60.4,0,32.12,.24,64.23,.13,96.35-.05,13.37,9.55,24.85,22.47,26.03,14.71,1.34,26.75-7.66,28.6-21.67,.56-4.25,.44-8.6,.46-12.9,.05-10.16-.01-20.31-.02-30.47,0-7.9,0-15.81,0-23.65,1.75-.15,2.02,.77,2.4,1.42,13.58,22.87,27.09,45.78,40.73,68.62,2.53,4.23,4.79,8.72,8.65,12.03,9.96,8.54,24.02,8.43,34.19-.31,8.74-7.51,11.09-22.8,4.96-32.83-8.08-13.23-16.35-26.35-24.14-39.76-5.66-9.73-11.32-19.47-17.71-28.76-.7-1.02-3.05-3.95,.82-4.2,4.45-.29,9.11-1.15,13.32-.62,10.17,1.29,20.26,.45,30.38,.56,15.64,.17,31.28,.06,46.93,.07,2.42,0,4.51-.07,4.46,3.56-.15,10.77-.25,21.57,.18,32.33,.37,9.16-1.57,18.46,1.61,27.49,.55,1.57,1.25,5.08,.36,5.03-4.16-.22-2.1,2.73-2.19,3.99-.3,4.14-.13,8.32-.12,12.48,.03,12.12,7.06,24.06,19.88,26.9,14.73,3.25,27.95-6.54,30.96-19.51,2.36-10.14,.6-20.57,.76-30.86,.28-18.81-.08-37.62-.06-56.44,0-1.64-1.03-4.21,1.4-4.79,7.05-1.69,7.03-7.06,7.02-12.53-.02-18.65-.18-37.3,0-55.94,.05-4.56-.17-8.45-5.05-10.36,.66-1.63,1.26-3.06,2.74-4.42,4.74-4.34,4.5-7.7-.39-11.64-2.04-1.64-4.22-3.99-6.92-.69-.69,.84-1.59,.1-2.15-.42-4.4-4.15-6.19-.73-8.02,2.7-.37,.69-.97,1.96-1.25,1.9-4.43-.87-1.82,2.55-2.47,3.94Zm-29.8-127.52c-.29,.96-.29,1.35-.48,1.51-4.12,3.51-9.33,3.28-14.2,3.83-4.14,.47-5.38,2.38-5.44,6.33-.16,10.18,.99,20.3,.34,30.52-.73,11.6-.08,23.28-.39,34.91-.09,3.43,1,5.24,4.06,6.38,9.33,3.47,18.39,7.76,27.23,12.13,12.22,6.03,24.81,11.35,36.73,18.01,5.24,2.93,5.33,2.77,5.41-3.44q.09-7.12,7.41-7.77c1.81-.16,3.6-.38,4.99-1.91,.52-.57,1.79-1.78,2.43-.55,1.77,3.4,4.97,2.19,7.41,2.25,11.3,.29,22.61,.1,33.92,.24,2.75,.03,4.1-1.02,5.22-3.5,5.93-13.17,11.84-26.36,18.25-39.3,1.99-4.01,.5-5.16-2.62-6.62-11.63-5.44-23.2-11.02-34.81-16.51-15.92-7.53-31.92-14.92-47.75-22.63-2.5-1.22-3.95-1.06-5.65,1.29,1.88-4.29-1.44-4.79-3.62-5.84-11.23-5.38-22.51-10.66-33.75-16.01-6.6-3.14-13.16-6.38-19.77-9.5-1.99-.94-4.58-2.03-4.75,1.58-.29,6.09-.08,12.21-.08,17.74,7.01,.1,13.28-1.7,19.91-3.17Zm-250.79-18c0,2.08,.21,3.78-.04,5.4-.64,4.09,1.06,6.27,4.88,7.74,5.09,1.96,9.98,4.46,14.92,6.82,26.72,12.73,53.47,25.38,80.12,38.27,9.93,4.8,20.6,8.1,30.11,13.54,14.85,8.49,30.85,14.48,45.98,22.33,1.96,1.02,4.65,2.92,7.5,1.35,.83-.45,1.53-.58,1.65,.76,.36,4.35,5.63,5.37,6.84,4.85,5.22-2.28,8.81,1.77,11.07,3.76,5.1,4.47,10.98,7.1,16.66,10.32,2.17,1.23,3.48,1.26,4.47-1.46,1.31-3.59,2.92-7.08,4.64-10.49,1.42-2.81,.55-4.12-2.18-5.27-7.18-3.02-14.36-6.19-21.22-9.78-22.45-11.74-45.77-21.66-68.4-33.03-15.74-7.92-31.93-14.95-47.75-22.7-26.55-13.02-53.03-26.18-80.11-38.11-2.83-1.25-6.05-4.9-8.27-3.32-2.36,1.68-.21,6.21-.85,9.04Zm400.83,239c1.02-7.83,1.86-8.51,6.08-5.35,1.2-4.58,4.45-7.3,8.91-9.25-3.74,0-7.47,.98-10.19-.27-2.89-1.32-4.75-2.25-7.47-.05-.99,.8-3.32,.33-3.52,2.06-.21,1.8,1.54,3.16,3.04,3.45,3.29,.64,3.47,2.24,2.47,4.92-.44,1.17-.47,2.6,.68,4.48ZM314.02,51.09c-.69-2.72-1.38-5.75-2.24-8.73-.42-1.45-2.54-1.56-2.71-.95-.86,2.97-5.07,1.7-5.61,4.76-.02,.12,.13,.36,.25,.39,3.59,.97,4.94,4.77,8.07,6.39,2.16,1.12,2.09-.16,2.26-1.86Zm-157.55,20.64c.81-.56,4.36,2.07,4.05-2.18-.13-1.75-.73-3.51-3.47-2.64-2.19,.69-5.45-.3-5.4,3.39,.04,2.67,2.16,2.28,4.81,1.43Zm308.43,59.33c1.85-.23,3.1-1.02,2.83-2.85-.36-2.46-1.71-4.52-4.31-4.71-2.14-.16-2.5,1.95-2.47,3.54,.05,2.5,1.68,3.76,3.95,4.03Zm-204.45,340.66c.7-.36,3.06,1.09,2.5-1.77-.46-2.34-1.83-3.85-4.29-3.95-1.74-.07-3.43,.32-3.1,2.67,.37,2.58,1.99,3.59,4.89,3.05ZM467.32,84.84c-2.81-.37-5.28-2.54-8.16-1.01-.93,.49-2.83-.09-2.72,1.45,.15,2.14,3.21,1.84,3.98,3.94,.35,.96,1.48,.01,1.81-.69,1.03-2.15,3.54-2.02,5.1-3.68Zm-200.94-2.25c-1.89,.63-3.74,1.48-4.05,3.8-.18,1.39,1.04,1.52,2.04,1.55,2.24,.08,3.42-1.04,3.45-3.29,.01-.97,.21-2.12-1.44-2.06Zm129.56,288.22c1.29-.07,3.06,.11,3.22-1.45,.17-1.63-1.59-1.21-2.62-1.22-1.21-.01-3.02-.55-3.19,1.25-.15,1.53,1.48,1.34,2.59,1.42Zm14.8-122.71c1.53,2.9,3.04,4.46,5.72,5.63-.25-3.36-1.97-4.71-5.72-5.63ZM91.97,49.37c-1.73-1.52-2.55-3.51-4.79-2.55-.38,.16-.78,1.31-.58,1.67,1.11,2.02,2.87,1.8,5.37,.88Z"/>
      <path class="cls-1" d="M365.02,249.98c4.88,1.91,5.1,5.8,5.05,10.36-.19,18.65-.03,37.29,0,55.94,0,5.47,.03,10.85-7.02,12.53-2.43,.58-1.4,3.15-1.4,4.79-.02,18.81,.34,37.63,.06,56.44-.15,10.29,1.6,20.73-.76,30.86-3.01,12.97-16.23,22.76-30.96,19.51-12.82-2.83-19.85-14.78-19.88-26.9,0-4.16-.18-8.34,.12-12.48,.09-1.26-1.97-4.21,2.19-3.99,.9,.05,.19-3.46-.36-5.03-3.17-9.04-1.24-18.34-1.61-27.49-.43-10.76-.33-21.55-.18-32.33,.05-3.63-2.04-3.55-4.46-3.56-15.64-.01-31.29,.1-46.93-.07-10.12-.11-20.21,.73-30.38-.56-4.2-.53-8.87,.33-13.32,.62-3.87,.25-1.52,3.18-.82,4.2,6.39,9.29,12.06,19.03,17.71,28.76,7.79,13.41,16.06,26.53,24.14,39.76,6.13,10.03,3.78,25.32-4.96,32.83-10.17,8.74-24.24,8.86-34.19,.31-3.86-3.31-6.12-7.8-8.65-12.03-13.64-22.84-27.15-45.75-40.73-68.62-.38-.65-.65-1.57-2.4-1.42,0,7.84,0,15.74,0,23.65,0,10.16,.07,20.31,.02,30.47-.02,4.3,.1,8.65-.46,12.9-1.85,14.01-13.89,23.02-28.6,21.67-12.92-1.18-22.52-12.66-22.47-26.03,.11-32.12-.12-64.23-.13-96.35,0-20.13,.18-40.27,.15-60.4,0-1.8,.41-3.53,.53-5.29,.67-10.11-8.36-11.2-14.06-14.22-7.83-4.16-15.35-8.8-22.88-13.39-6.97-4.25-8.55-12.4-4.74-19.27,3.9-7.03,11.72-9.89,19.25-6.32,6.75,3.2,13.19,7.07,19.65,10.82,2.52,1.47,5.01,2.25,7.96,2.24,25.63-.06,51.26,.03,76.89,.02,29.97-.02,59.94-.08,89.91-.21,1.8,0,3.18,.59,4.67,1.33,18.52,9.12,37.05,18.22,55.57,27.32,.43,.19,.86,.38,1.29,.57-.62,1.54-3.31,2.3-1.37,4.82,1.11,1.45,1.3,3.34,3.87,1.73,.78-.49,3.25-.01,1.92,2.43-.83,1.53,1,1.64,1.24,1.45,2.74-2.25,6.45-.81,9.29-2.54l2.23,.15Zm-211.62,9.5c-1.08-2.54,3.5-4.54,.06-8.32,.83,3.66-2.46,5.66-.06,8.32Zm139.2,27.7c.61-3.01,1.14-5.57,1.63-8.15,.13-.67,.87-1.67-.67-1.69-.71,0-1.11,.3-1.37,1.08-.94,2.84-1.11,5.62,.41,8.76Z"/>
      <path class="cls-1" d="M316.77,113.84c-6.64,1.47-12.9,3.27-19.91,3.17,0-5.54-.21-11.65,.08-17.74,.17-3.61,2.76-2.52,4.75-1.58,6.61,3.12,13.17,6.36,19.77,9.5,11.24,5.35,22.52,10.63,33.75,16.01,2.18,1.05,5.5,1.55,3.62,5.84,1.7-2.35,3.15-2.51,5.65-1.29,15.83,7.71,31.83,15.1,47.75,22.63,11.61,5.49,23.18,11.07,34.81,16.51,3.12,1.46,4.61,2.61,2.62,6.62-6.42,12.94-12.32,26.13-18.25,39.3-1.12,2.48-2.47,3.54-5.22,3.5-11.31-.14-22.62,.05-33.92-.24-2.44-.06-5.64,1.15-7.41-2.25-.64-1.23-1.91-.02-2.43,.55-1.39,1.53-3.17,1.75-4.99,1.91q-7.32,.66-7.41,7.77c-.08,6.2-.17,6.37-5.41,3.44-11.92-6.66-24.52-11.98-36.73-18.01-8.84-4.37-17.9-8.66-27.23-12.13-3.06-1.14-4.15-2.96-4.06-6.38,.3-11.63-.35-23.31,.39-34.91,.65-10.22-.5-20.35-.34-30.52,.06-3.95,1.3-5.86,5.44-6.33,4.88-.56,10.09-.32,14.2-3.83,.19-.16,.19-.55,.48-1.51Z"/>
      <path class="cls-1" d="M65.98,95.84c.64-2.83-1.51-7.36,.85-9.04,2.22-1.58,5.45,2.07,8.27,3.32,27.07,11.93,53.55,25.09,80.11,38.11,15.82,7.76,32.01,14.79,47.75,22.7,22.62,11.38,45.94,21.29,68.4,33.03,6.86,3.59,14.04,6.76,21.22,9.78,2.74,1.15,3.61,2.46,2.18,5.27-1.73,3.41-3.34,6.91-4.64,10.49-.99,2.72-2.3,2.69-4.47,1.46-5.68-3.22-11.55-5.85-16.66-10.32-2.26-1.98-5.85-6.04-11.07-3.76-1.21,.53-6.48-.49-6.84-4.85-.11-1.35-.82-1.22-1.65-.76-2.84,1.56-5.54-.34-7.5-1.35-15.13-7.85-31.13-13.83-45.98-22.33-9.51-5.44-20.18-8.74-30.11-13.54-26.64-12.89-53.4-25.54-80.12-38.27-4.94-2.35-9.83-4.86-14.92-6.82-3.82-1.47-5.52-3.65-4.88-7.74,.25-1.63,.04-3.33,.04-5.4Z"/>
      <path class="cls-2" d="M347.85,241.93c-.43-.19-.86-.38-1.29-.57,.65-1.39-1.96-4.81,2.47-3.94,.29,.06,.89-1.21,1.25-1.9,1.83-3.43,3.61-6.86,8.02-2.7,.56,.53,1.46,1.27,2.15,.42,2.7-3.3,4.88-.96,6.92,.69,4.89,3.93,5.13,7.3,.39,11.64-1.49,1.36-2.09,2.79-2.74,4.42-.74-.05-1.49-.1-2.23-.15-4.83-2.92-9.51-6.12-14.95-7.9Z"/>
      <path class="cls-2" d="M466.81,334.85c-1.15-1.89-1.12-3.31-.68-4.48,1-2.68,.82-4.28-2.47-4.92-1.49-.29-3.24-1.65-3.04-3.45,.2-1.73,2.53-1.26,3.52-2.06,2.72-2.2,4.58-1.27,7.47,.05,2.72,1.24,6.45,.27,10.19,.27-4.46,1.95-7.72,4.67-8.91,9.25-4.21-3.17-5.05-2.48-6.08,5.34Z"/>
      <path class="cls-2" d="M314.02,51.09c-.17,1.7-.1,2.98-2.26,1.86-3.13-1.63-4.47-5.42-8.07-6.39-.11-.03-.27-.28-.25-.39,.54-3.05,4.75-1.79,5.61-4.76,.18-.61,2.29-.5,2.71,.95,.87,2.98,1.55,6.01,2.24,8.73Z"/>
      <path class="cls-2" d="M156.48,71.73c-2.65,.85-4.77,1.24-4.81-1.43-.06-3.69,3.21-2.7,5.4-3.39,2.74-.87,3.34,.89,3.47,2.64,.31,4.25-3.25,1.62-4.05,2.18Z"/>
      <path class="cls-2" d="M464.9,131.06c-2.27-.26-3.9-1.53-3.95-4.03-.03-1.59,.33-3.7,2.47-3.54,2.61,.2,3.95,2.25,4.31,4.71,.27,1.83-.98,2.63-2.83,2.85Z"/>
      <path class="cls-2" d="M260.45,471.73c-2.9,.54-4.52-.46-4.89-3.05-.33-2.35,1.36-2.74,3.1-2.67,2.46,.1,3.84,1.61,4.29,3.95,.56,2.85-1.8,1.41-2.5,1.77Z"/>
      <path class="cls-2" d="M467.32,84.84c-1.56,1.66-4.06,1.53-5.1,3.68-.34,.7-1.46,1.65-1.81,.69-.77-2.1-3.83-1.8-3.98-3.94-.11-1.54,1.79-.96,2.72-1.45,2.88-1.53,5.35,.64,8.16,1.01Z"/>
      <path class="cls-2" d="M266.38,82.59c1.65-.06,1.45,1.1,1.44,2.06-.03,2.25-1.21,3.37-3.45,3.29-1-.04-2.22-.17-2.04-1.55,.31-2.32,2.16-3.17,4.05-3.8Z"/>
      <path class="cls-2" d="M395.94,370.81c-1.1-.09-2.73,.11-2.58-1.42,.18-1.8,1.99-1.26,3.19-1.25,1.02,.01,2.78-.41,2.62,1.22-.16,1.56-1.94,1.38-3.23,1.45Z"/>
      <path class="cls-2" d="M410.74,248.09c3.75,.92,5.47,2.27,5.72,5.63-2.68-1.18-4.19-2.73-5.72-5.63Z"/>
      <path class="cls-2" d="M91.97,49.37c-2.5,.92-4.26,1.14-5.37-.88-.2-.37,.19-1.51,.58-1.67,2.24-.96,3.06,1.03,4.79,2.55Z"/>
      <path class="cls-3" d="M347.85,241.93c5.43,1.78,10.12,4.98,14.95,7.9-2.84,1.73-6.54,.29-9.29,2.54-.24,.19-2.07,.08-1.24-1.45,1.33-2.45-1.14-2.92-1.92-2.43-2.57,1.61-2.76-.29-3.87-1.73-1.94-2.52,.76-3.28,1.37-4.82Z"/>
      <path class="cls-3" d="M153.4,259.49c-2.4-2.66,.89-4.66,.06-8.32,3.45,3.78-1.14,5.78-.06,8.32Z"/>
      <path class="cls-3" d="M292.6,287.19c-1.52-3.14-1.35-5.92-.41-8.76,.26-.78,.66-1.08,1.37-1.08,1.53,.01,.79,1.02,.67,1.69-.49,2.57-1.02,5.14-1.63,8.15Z"/>
    </g>
  </g>
</svg>